PathFileType	4	(X/Y/Z)	55_1_17_p1_0-230_filt_butterworth.trc
DataRate	CameraRate	NumFrames	NumMarkers	Units	OrigDataRate	OrigDataStartFrame	OrigNumFrames
60.0	60.0	5	27	m	60.0	0	230
Frame#	Time	RHip			RKnee			RAnkle			RBigToe			RSmallToe			RHeel			LHip			LKnee			LAnkle			LBigToe			LSmallToe			LHeel			Neck			Head			Nose			RShoulder			RElbow			RWrist			RThumb			RIndex			RPinky			LShoulder			LElbow			LWrist			LThumb			LIndex			LPinky			
		X1	Y1	Z1	X2	Y2	Z2	X3	Y3	Z3	X4	Y4	Z4	X5	Y5	Z5	X6	Y6	Z6	X7	Y7	Z7	X8	Y8	Z8	X9	Y9	Z9	X10	Y10	Z10	X11	Y11	Z11	X12	Y12	Z12	X13	Y13	Z13	X14	Y14	Z14	X15	Y15	Z15	X16	Y16	Z16	X17	Y17	Z17	X18	Y18	Z18	X19	Y19	Z19	X20	Y20	Z20	X21	Y21	Z21	X22	Y22	Z22	X23	Y23	Z23	X24	Y24	Z24	X25	Y25	Z25	X26	Y26	Z26	X27	Y27	Z27	
0	0.0	0.3379203433022336	0.5819363491506953	0.7161959958295243	0.34778030304421415	0.6045674915060987	1.1967334104359157	0.3246118762267931	0.6621560675165921	1.660339711428354	0.27285640657375987	0.39818883064294075	1.6228966105006593	0.33909833885606616	0.4590568668840578	1.658971883297774	0.3104999986611923	0.7135981457389371	1.7096353257046042	0.1263135145337573	0.6048339790634898	0.7377432627389844	0.11522335397783942	0.6089951821154589	1.1991534728459727	0.12024072674017813	0.6074435334818971	1.61685097003565	0.13841730932559143	0.4205775880824224	1.6390567097395343	0.08068011406646175	0.4816866681424745	1.6609650330336905	0.13901446151309033	0.6591205118288818	1.694515015527006	0.2242108765876487	0.6249490655943516	0.2045355662647358	0.22502232482057488	0.5699350068508495	-0.03824754511486124	0.22688559564677102	0.5135814094730704	0.08244118719387122	0.38395010081101594	0.5885864639018397	0.2822020354353278	0.4016019101739445	0.5451455106902221	0.5548418745923875	0.2763493322067087	0.41617221501333707	0.7341745137819521	0.16349250430138898	0.41628580208907273	0.7976226434169358	0.15577846306327855	0.4411158847458689	0.8117854863389742	0.19074630477794902	0.41578655843953394	0.8315995396056683	0.0820042508137493	0.6356697046398113	0.2712000931315336	0.05966077086753123	0.5473750858948155	0.5380650801639041	0.1552150923054165	0.46195447966486314	0.7290010579188001	0.19226513752536142	0.38965532792368257	0.7881880571792043	0.1926489639574499	0.38749000239136105	0.8036011169006241	0.1881788526026737	0.41124786434996513	0.8127935067733345
1	0.0166666666666666	0.33766830493735017	0.5820261127338934	0.7183678667775513	0.3473618052317996	0.6047964976329413	1.1996893024587065	0.3242395412082802	0.6577895402594219	1.6575010064830384	0.27616991111295414	0.4050184003875206	1.6247383971675116	0.3402773686099421	0.45076423804905674	1.653390458575407	0.3080473199233614	0.7126292336622027	1.7088845001236947	0.12620322399931422	0.6048713695693323	0.7390518111136528	0.11624928353624608	0.612615907551636	1.2072916471324024	0.12032025077386488	0.6066915632472502	1.6180868501804924	0.1342258843655704	0.4243123576049605	1.6382106443092765	0.0802607102022338	0.4804205480653278	1.6600927737293396	0.1382095659187314	0.6585172693664644	1.6951383604413217	0.22431274387289624	0.6246627139019603	0.20664012347185212	0.22500508061658042	0.5700651762399188	-0.03811053254984341	0.22677809315515615	0.5133226932595005	0.0824272470139928	0.3840238618145774	0.5882329507085565	0.28432763184653104	0.39815766697475546	0.5405832715711651	0.5559687472482754	0.27591416419212583	0.41603836411854467	0.7322999877071589	0.16524455635089863	0.4220541536665591	0.7998984997914081	0.1560084078839665	0.44197412869180924	0.8139620401678849	0.1903226364817308	0.41598823632162474	0.8336819035575286	0.08193983546777721	0.6356152500920422	0.26989723724249354	0.059579551978975936	0.5474279865400193	0.536657010880138	0.15515603702319578	0.46242508370131974	0.7276193165222092	0.19328824417041382	0.39204973666625054	0.7892213884832581	0.19151045508036926	0.3889643787632927	0.80378623241367	0.18835164066649632	0.41211726524296627	0.8129270340118934
2	0.0333333333333333	0.33751593232189725	0.582102922172398	0.7196543446132039	0.34710314476323756	0.6049454847145453	1.2014906156268972	0.32384813797469764	0.6574538266080402	1.6572621517334338	0.277964527126973	0.4088975649819365	1.6262669367395564	0.3405024068501402	0.4483844597934802	1.6518782770607738	0.30663228090657524	0.7121965103450273	1.708658733908313	0.1261502656972228	0.6048737478056344	0.7402978777584409	0.11625158254946658	0.6130723339290618	1.211421571942814	0.12040481526841366	0.6060341121177338	1.619297801981665	0.13208142444748794	0.424808167705336	1.6363697678722546	0.07940128460552019	0.47742394529118726	1.6580356977164294	0.13829288234815934	0.6586376197379511	1.6957848941620273	0.2243816573288986	0.6244842572436602	0.20794675746656405	0.22497890521704078	0.5700980595718209	-0.03803387758021783	0.2267956972970258	0.5133966121576926	0.08240932573841321	0.3840697482123115	0.5880417705193877	0.28561174110755017	0.3949345244254615	0.5362644042091574	0.5558630201572969	0.2757626312104719	0.41607181415503125	0.7318696943344757	0.16565864346393525	0.4234954654323661	0.8004945839684228	0.15556102059264282	0.4411724838850663	0.8140816972977962	0.19004749723851214	0.4160427019894186	0.8349382842429753	0.08189633177584796	0.6356708411632066	0.2686361415926989	0.05953439978063731	0.5475525273141477	0.5353578926532135	0.155105922481818	0.46293244710514214	0.7264723161779332	0.19335056818200852	0.3922273223824005	0.7893726281667692	0.19017660119356106	0.38863590229306666	0.8026008611760023	0.1883312733333828	0.41249684901097755	0.8121667537286892
3	0.05	0.33747791333760296	0.5821382602942339	0.7199907092264933	0.34702401626733465	0.6050000562690663	1.202049861205383	0.32388549511441467	0.6600347337401613	1.6589086524225238	0.27780947925114396	0.40886084745764706	1.6270521200668733	0.33982397414648957	0.45156583201518996	1.6541878957300227	0.30641622864565665	0.7123815425890432	1.7093754761911295	0.12614778915131156	0.6047855976909894	0.7411681625599679	0.11548758980144602	0.6111971927621738	1.2112287961426815	0.12047688280241747	0.6056128510194866	1.6201849664836865	0.13178457102759816	0.4229550136299934	1.6345508747495905	0.07824495821878154	0.4732510923741199	1.655164272618101	0.13893503911782656	0.6591975342926615	1.6962095856072523	0.22441070342157082	0.624426877001338	0.20838462943795483	0.22492081130229394	0.5699623923102022	-0.03802513384049758	0.2271828778652797	0.5144800907214285	0.08241574855371211	0.3840833317449907	0.5880132383716459	0.28598830446198853	0.392727627321157	0.5332965763981549	0.5545329415954521	0.27588302530589826	0.41621669015185353	0.7327762752039368	0.16479868840971423	0.4208872819203904	0.7995245391277396	0.15447767667785167	0.43802934974042607	0.8120663447183026	0.1899518760746422	0.4159313372533543	0.8352944685382304	0.08188902703318872	0.6358274629126722	0.26773341068116546	0.059543566859105994	0.5476967555890153	0.5344848228672877	0.15509259250657917	0.4631324843481385	0.7259699362958854	0.1927635370211308	0.39087609457733136	0.7888990799724139	0.1890947245886863	0.3871338751933726	0.8010433804928944	0.18813387627100686	0.4123581442168882	0.8104497146193669
4	0.0666666666666666	0.3375095822598189	0.5820816335564699	0.7198776241416187	0.34704456221430363	0.6049996262593105	1.201994469158681	0.3243459221144708	0.6623291569329381	1.6603863385967768	0.2763236808368703	0.4057604237069516	1.6262601491285888	0.3389841234507718	0.45564096194490555	1.65710249927664	0.30692360671130875	0.7129449211051223	1.7111629223915035	0.12612219023339302	0.6046121572360978	0.741523614762667	0.11480604424934335	0.6094974328887541	1.209309311937825	0.12052132481990482	0.6054547700198578	1.6205720564055754	0.13197875565844452	0.4211978462071357	1.63414272511564	0.07734207910393229	0.4700230878116006	1.6529299784195546	0.13944586115719299	0.6596479168060008	1.6964537953600995	0.22440958691960186	0.6244429955299778	0.20829524835326377	0.22483445484132042	0.5697261953294174	-0.03805168841956784	0.22812868158361793	0.5170897839571049	0.08252286078269674	0.3840804563156887	0.5880495993504637	0.2859222024502997	0.3918852694802406	0.5322058512781886	0.5528953135951331	0.27606124538417876	0.41627569306063594	0.7338418472985145	0.16370978236435355	0.41771840828209517	0.7983406607950633	0.15383309195670591	0.43369374353679524	0.8097381885805646	0.18997287415239753	0.41572980434061546	0.8351822122528498	0.08191239950093246	0.6360178103448814	0.2673553158227967	0.059592718159850865	0.5477855082381268	0.5341601699169062	0.15510709912124898	0.462190554972091	0.7258963076151912	0.19228417271162965	0.3897207010514182	0.788473332368135	0.18866734022900836	0.3858726717063405	0.8007087603738017	0.18792048432458566	0.4119874559469806	0.8085208529921664
